# xmcd CD database file
#
# Track frame offsets:
#	150
#	13407
#	35695
#	55839
#	73320
#	92950
#	110100
#	127036
#	158578
#	175339
#	193847
#
# Disc length: 2811 seconds
#
# Revision: 0
# Processed by: cddbd v1.5.1PL2 Copyright (c) Steve Scherf et al.
# Submitted via: CDex 1.51
#
DISCID=a70af90b
DTITLE=Sugar Blue - Right Now
DYEAR=2005
DGENRE=Blues
TTITLE0=RIGHT NOW
TTITLE1=HOOTCHIE COOTCHIE MAN
TTITLE2=LIP SERVICE
TTITLE3=HIGH HEAL SHOES
TTITLE4=DON´T KNOW HOW
TTITLE5=BECHEROVKA BOOGIE
TTITLE6=IRON MAN
TTITLE7=CNN BLUES
TTITLE8=SALT OF THE EARTH
TTITLE9=MESSING WITH THE KID
TTITLE10=PONTIAC
EXTD=YEAR: 2005
EXTT0=
EXTT1=
EXTT2=
EXTT3=
EXTT4=
EXTT5=
EXTT6=
EXTT7=
EXTT8=
EXTT9=
EXTT10=
PLAYORDER=
